<svg width="708" height="99" viewBox="0 0 708 99" fill="none" xmlns="http://www.w3.org/2000/svg">
<path d="M363.345 98.1937L323.284 67.3301C359.702 55.1879 362.408 41.2536 358.841 22.3789C355.606 5.26035 342.199 0.76374 323.464 0.763672H281.869L281.885 29.6853H322.039C327.203 29.6853 328.142 36.9032 323.241 38.5425L281.897 52.5225L281.909 73.1347L314.814 98.1937H363.345Z" fill="black"/>
<path d="M244.699 98.1937L244.699 0.767908H276.984V98.1937H244.699Z" fill="black"/>
<path d="M525.431 0.767822H491.502V98.1937H525.431V0.767822Z" fill="black"/>
<path d="M530.471 98.1937H599.803V67.8639H530.471V98.1937Z" fill="black"/>
<path d="M367.601 29.8521V0.768005H483.861V29.8521H367.601Z" fill="black"/>
<path d="M407.648 34.8161V98.1937H443.814V34.8161H407.648Z" fill="black"/>
<path d="M152.244 0.767822H187.908L140.947 98.1937H105.283L152.244 0.767822Z" fill="black"/>
<path d="M172.286 44.5473L190.886 6.58669L237.863 98.1936H199.246L172.286 44.5473Z" fill="black"/>
<path d="M80.016 73.7282H37.943V44.5441H72.3317C72.5839 44.5441 72.8321 44.5378 73.0762 44.5237C77.0782 44.506 80.317 41.2562 80.317 37.2501C80.317 33.7755 77.8808 30.87 74.6234 30.1485C74.1223 30.0163 73.5836 29.9521 72.9897 29.9521H0.699219V0.768066H80.3109C99.5394 0.768072 116.713 14.8364 116.713 37.2481C116.713 58.4821 99.1436 73.7282 80.016 73.7282Z" fill="black"/>
<path d="M0.699219 98.1937V44.5441H33.0622V98.1937H0.699219Z" fill="black"/>
<path d="M617.087 98.1937H656.347V67.8759L609.188 0.768005H569.912L617.087 67.8994V98.1937Z" fill="black"/>
<path d="M659.901 63.8053L707.029 0.768005H666.19L640.206 36.2332L659.901 63.8053Z" fill="black"/>
</svg>
