<?xml version="1.0" encoding="UTF-8"?>
<svg id="Layer_1" data-name="Layer 1" xmlns="http://www.w3.org/2000/svg" viewBox="0 0 568.26 566.93">
  <defs>
    <style>
      .cls-1 {
        fill: #fec20e;
      }

      .cls-1, .cls-2, .cls-3, .cls-4, .cls-5, .cls-6 {
        stroke-width: 0px;
      }

      .cls-2 {
        fill: #0bb7a6;
      }

      .cls-3 {
        fill: #333;
      }

      .cls-4 {
        fill: #fff;
      }

      .cls-5 {
        fill: #74bc43;
      }

      .cls-6 {
        fill: #1ab3e1;
      }
    </style>
  </defs>
  <g id="Layer_1-2" data-name="Layer 1">
    <g>
      <polygon class="cls-6" points="14.6 240.56 72.7 240.56 72.7 390.02 119.55 390.02 119.55 240.56 177.63 240.56 177.63 200.89 14.6 200.89 14.6 240.56"/>
      <rect class="cls-5" x="190.5" y="253.79" width="46.32" height="136.22"/>
      <rect class="cls-5" x="191.04" y="200.89" width="45.23" height="35.71"/>
      <path class="cls-1" d="m347.64,255.38c0,3.44.27,6.08.27,6.08h-.53s-8.3-10.85-36.14-10.85c-36.67,0-62.91,28.04-62.91,71.15s24.62,71.42,62.11,71.42c28.37,0,39.89-19.84,39.89-19.84h.53s-.27,3.45-.27,7.68v8.99h43.37v-189.13h-46.32v54.49h0Zm-25.69,99.99c-16.06,0-27.04-13.23-27.04-33.6s12.58-32.53,27.04-32.53c18.21,0,27.04,16.14,27.04,32.53,0,23.55-13.11,33.6-27.04,33.6Z"/>
      <path class="cls-2" d="m484.18,317.27c-1.87,7.41-4.55,20.38-4.55,20.38h-.53s-2.68-13.76-5.08-21.17l-20.35-62.68h-52.47l58.63,133.58-2.68,6.35c-4.81,11.64-14.72,13.75-22.22,13.75-6.7,0-14.19-5.02-14.19-5.02l-14.73,33.59s13.92,9.52,32.12,9.52c21.96,0,46.05-10.58,57.55-41l56.49-150.77h-50.6l-17.4,63.48h0Z"/>
    </g>
  </g>
  <rect class="cls-3" x="1.33" width="566.93" height="566.93"/>
  <polyline class="cls-4" points="0 148.65 497.79 13.39 0 77.67"/>
  <g>
    <path class="cls-4" d="m105.16,342.7h-50.24v-34.72h140.99v34.72h-50.24v130.8h-40.51v-130.8Z"/>
    <path class="cls-4" d="m207.02,354.28h40.05v119.22h-40.05v-119.22Zm.46-46.3h39.12v31.25h-39.12v-31.25Z"/>
    <path class="cls-4" d="m311.42,351.5c24.08,0,31.25,9.49,31.25,9.49h.46s-.23-2.31-.23-5.33v-47.69h40.05v165.52h-37.51v-7.87c0-3.7.23-6.72.23-6.72h-.47s-9.95,17.37-34.49,17.37c-32.41,0-53.71-25.47-53.71-62.51s22.69-62.28,54.4-62.28l.02.02Zm9.26,91.68c12.04,0,23.38-8.8,23.38-29.4,0-14.35-7.64-28.48-23.38-28.48-12.5,0-23.38,10.19-23.38,28.48s9.49,29.4,23.38,29.4Z"/>
    <path class="cls-4" d="m406.11,484.38s6.48,4.4,12.27,4.4c6.48,0,15.05-1.85,19.21-12.04l2.31-5.56-50.7-116.91h45.37l17.6,54.86c2.08,6.48,4.4,18.52,4.4,18.52h.47s2.31-11.34,3.94-17.82l15.05-55.56h43.75l-48.85,131.96c-9.95,26.62-30.79,35.88-49.77,35.88-15.74,0-27.78-8.33-27.78-8.33l12.73-29.4h0Z"/>
  </g>
</svg>